# xmcd CD database file
#
# Track frame offsets:
#	150
#	17820
#	31663
#	45687
#	59178
#	70561
#	84024
#	100217
#	113341
#	126124
#	137897
#	152017
#	162362
#	175769
#	185866
#	199519
#	207381
#	217677
#	231093
#	248744
#	268301
#	288479
#	301200
#	314392
#
# Disc length: 4371 seconds
#
# Revision: 0
# Processed by: cddbd v1.4PL0 Copyright (c) Steve Scherf et al.
# Submitted via: Feurio! 1.65 - http://www.feurio.com
#
DISCID=4d111118
DTITLE=Various Artist - Country -CD 3
DYEAR=1900
DGENRE=Disco-International-Kiste
TTITLE0=Judy Rodman - Until I Meet You (Neuaufn.)
TTITLE1=Bobby Rice - You Lay So Easy On My Mmd (Neuaufn.)
TTITLE2=Tony Adams-Rosa - Come Back And Hold Me
TTITLE3=Jennifer Weatherly - In The Name Of Love
TTITLE4=Merrle Kilgore - Love Has Made You Beautiful (Neuaufn) 
TTITLE5=T. Graham Brown - I Teil lt Like lt Used To Be (Neuaufn)
TTITLE6=Narvel Felts - Reconsider Me (Neuaufn) 
TTITLE7=Jack Greene - Statue Of A Fool (Neuaufn) 
TTITLE8=Carl Smith - Let Old Mother Nature Have Her Way 
TTITLE9=obby Lewjs - How Long Has lt Been (Neuaufn) 
TTITLE10=Jennifer Weatherly - Ain't Through Lovin You Yet 
TTITLE11=Buddy Knox - Devil Women (Neueufn) 
TTITLE12=Johnny Carver - Afternboon Delight (Neuaufn) 
TTITLE13=Glen Campell - lt's A Good Thing (Neuaufn) 
TTITLE14=Dickey Lee - 9,999,999 Tears 
TTITLE15=Susan Raye - (Ive Got A) Happy Heart (Neuaufn.)
TTITLE16=Freddy Weiler - Indian Lake  (Neuaufn.)
TTITLE17=Tony Adams-Rosa - Heart And SouI (Neuaufn) 
TTITLE18=Country Dance Kings - Gone Country 
TTITLE19=Jeff Turner - PIey Ruby Pley 
TTITLE20=The Krüger Band - Golden Ring 
TTITLE21=Country Dance Kings - Wink 
TTITLE22=Don Williams - VVhere Do You Go From Here  (Neuaufn) 
TTITLE23=Mel McDaniel  - Baby's Got Her Blue Jeans On ( (Neuaufn) 
EXTD=
EXTT0=
EXTT1=
EXTT2=
EXTT3=
EXTT4=
EXTT5=
EXTT6=
EXTT7=
EXTT8=
EXTT9=
EXTT10=
EXTT11=
EXTT12=
EXTT13=
EXTT14=
EXTT15=
EXTT16=
EXTT17=
EXTT18=
EXTT19=
EXTT20=
EXTT21=
EXTT22=
EXTT23=
PLAYORDER=
